<svg width="25" height="24" viewBox="0 0 25 24" fill="none" xmlns="http://www.w3.org/2000/svg">
<g clip-path="url(#clip0_890_693)">
<path d="M17.6063 0.0120105C17.5553 -0.0449895 15.7178 0.0345106 14.1188 1.77001C12.5198 3.50401 12.7658 5.49301 12.8018 5.54401C12.8378 5.59501 15.0818 5.67451 16.5143 3.65701C17.9468 1.63951 17.6573 0.0705105 17.6063 0.0120105ZM22.5773 17.6115C22.5053 17.4675 19.0898 15.7605 19.4078 12.4785C19.7258 9.19501 21.9203 8.29501 21.9548 8.19751C21.9893 8.10001 21.0593 7.01251 20.0738 6.46201C19.3502 6.07389 18.5494 5.85152 17.7293 5.81101C17.5673 5.80651 17.0048 5.66851 15.8483 5.98501C15.0863 6.19351 13.3688 6.86851 12.8963 6.89551C12.4223 6.92251 11.0123 6.11251 9.49582 5.89801C8.52532 5.71051 7.49632 6.09451 6.75982 6.39001C6.02482 6.68401 4.62682 7.52101 3.64882 9.74551C2.67082 11.9685 3.18232 15.4905 3.54832 16.5855C3.91432 17.679 4.48582 19.4715 5.45782 20.7795C6.32182 22.2555 7.46782 23.28 7.94632 23.628C8.42482 23.976 9.77482 24.207 10.7108 23.7285C11.4638 23.2665 12.8228 23.001 13.3598 23.0205C13.8953 23.04 14.9513 23.2515 16.0328 23.829C16.8893 24.1245 17.6993 24.0015 18.5108 23.6715C19.3223 23.34 20.4968 22.083 21.8678 19.5345C22.3883 18.3495 22.6253 17.709 22.5773 17.6115Z" fill="black"/>
<path d="M17.6063 0.0120105C17.5553 -0.0449895 15.7178 0.0345106 14.1188 1.77001C12.5198 3.50401 12.7658 5.49301 12.8018 5.54401C12.8378 5.59501 15.0818 5.67451 16.5143 3.65701C17.9468 1.63951 17.6573 0.0705105 17.6063 0.0120105ZM22.5773 17.6115C22.5053 17.4675 19.0898 15.7605 19.4078 12.4785C19.7258 9.19501 21.9203 8.29501 21.9548 8.19751C21.9893 8.10001 21.0593 7.01251 20.0738 6.46201C19.3502 6.07389 18.5494 5.85152 17.7293 5.81101C17.5673 5.80651 17.0048 5.66851 15.8483 5.98501C15.0863 6.19351 13.3688 6.86851 12.8963 6.89551C12.4223 6.92251 11.0123 6.11251 9.49582 5.89801C8.52532 5.71051 7.49632 6.09451 6.75982 6.39001C6.02482 6.68401 4.62682 7.52101 3.64882 9.74551C2.67082 11.9685 3.18232 15.4905 3.54832 16.5855C3.91432 17.679 4.48582 19.4715 5.45782 20.7795C6.32182 22.2555 7.46782 23.28 7.94632 23.628C8.42482 23.976 9.77482 24.207 10.7108 23.7285C11.4638 23.2665 12.8228 23.001 13.3598 23.0205C13.8953 23.04 14.9513 23.2515 16.0328 23.829C16.8893 24.1245 17.6993 24.0015 18.5108 23.6715C19.3223 23.34 20.4968 22.083 21.8678 19.5345C22.3883 18.3495 22.6253 17.709 22.5773 17.6115Z" fill="black"/>
</g>
<defs>
<clipPath id="clip0_890_693">
<rect width="24" height="24" fill="white" transform="translate(0.833313)"/>
</clipPath>
</defs>
</svg>
