<svg xmlns="http://www.w3.org/2000/svg" version="1.1" xmlns:xlink="http://www.w3.org/1999/xlink" width="512" height="512" x="0" y="0" viewBox="0 0 24 24" style="enable-background:new 0 0 512 512" xml:space="preserve" class=""><g><g fill="#231f20"><path d="M8 3.75h8c.41 0 .75-.34.75-.75s-.34-.75-.75-.75H8c-.41 0-.75.34-.75.75s.34.75.75.75zM20 5.25H4c-.41 0-.75.34-.75.75s.34.75.75.75h.3L5 17.32a4.76 4.76 0 0 0 4.74 4.43h4.52c2.49 0 4.57-1.95 4.74-4.43l.7-10.57h.3c.41 0 .75-.34.75-.75s-.34-.75-.75-.75zm-2.5 11.97a3.254 3.254 0 0 1-3.24 3.03H9.74c-1.71 0-3.13-1.33-3.24-3.03L5.8 6.75h12.4z" fill="#231f20" opacity="1" data-original="#231f20" class=""></path><path d="M12 17.75c.41 0 .75-.34.75-.75v-7c0-.41-.34-.75-.75-.75s-.75.34-.75.75v7c0 .41.34.75.75.75zM15 17.75c.41 0 .75-.34.75-.75v-7c0-.41-.34-.75-.75-.75s-.75.34-.75.75v7c0 .41.34.75.75.75zM9 17.75c.41 0 .75-.34.75-.75v-7c0-.41-.34-.75-.75-.75s-.75.34-.75.75v7c0 .41.34.75.75.75z" fill="#231f20" opacity="1" data-original="#231f20" class=""></path></g></g></svg>