<svg width="25" height="24" viewBox="0 0 25 24" fill="none" xmlns="http://www.w3.org/2000/svg">
<g clip-path="url(#clip0_890_679)">
<path d="M23.6745 12.2244C23.6745 11.2412 23.5962 10.5236 23.4265 9.77954H12.3962V14.2175H18.8707C18.7403 15.3204 18.0354 16.9814 16.4689 18.0975L16.4469 18.246L19.9345 20.9962L20.1761 21.0208C22.3952 18.9346 23.6745 15.8652 23.6745 12.2244Z" fill="#4285F4"/>
<path d="M12.3962 23.9176C15.5682 23.9176 18.2311 22.8545 20.1762 21.0209L16.4689 18.0976C15.4768 18.8018 14.1453 19.2934 12.3962 19.2934C9.28943 19.2934 6.65261 17.2074 5.71265 14.324L5.57488 14.3359L1.94843 17.1927L1.901 17.3269C3.83292 21.2334 7.80125 23.9176 12.3962 23.9176Z" fill="#34A853"/>
<path d="M5.71278 14.324C5.46476 13.58 5.32123 12.7826 5.32123 11.9589C5.32123 11.135 5.46476 10.3378 5.69973 9.59366L5.69316 9.43519L2.02127 6.53247L1.90113 6.59064C1.10489 8.21174 0.64801 10.0322 0.64801 11.9589C0.64801 13.8855 1.10489 15.7059 1.90113 17.327L5.71278 14.324Z" fill="#FBBC05"/>
<path d="M12.3962 4.62403C14.6022 4.62403 16.0903 5.59401 16.9388 6.40461L20.2544 3.10928C18.2181 1.1826 15.5682 0 12.3962 0C7.80124 0 3.83292 2.68406 1.901 6.59056L5.6996 9.59359C6.6526 6.7102 9.28942 4.62403 12.3962 4.62403Z" fill="#EB4335"/>
</g>
<defs>
<clipPath id="clip0_890_679">
<rect width="23.04" height="24" fill="white" transform="translate(0.646667)"/>
</clipPath>
</defs>
</svg>
